<?xml version="1.0" encoding="UTF-8" standalone="no"?>
<svg xmlns="http://www.w3.org/2000/svg" xmlns:svg="http://www.w3.org/2000/svg" viewBox="8 7 60 60">
  <g>
    <path style="fill:#ffffff;stroke:none" d="m 22.046875,27.759766 -0.03516,21.847656 15.990234,6.953125 -0.0078,-23.333985 z" />
    <path style="fill:#009ad8;stroke:none" d="m 39.687516,19.139851 -18.863003,7.179803 0.06513,24.079648 17.797732,7.782336 18.869592,-9.343126 0.73142,-24.936447 z m 0.208821,2.005272 16.517669,4.283202 -17.87336,6.894621 -14.729651,-5.002101 z m 16.690579,5.378908 -0.67313,21.063871 -17.004563,8.170929 0.09306,-22.461106 z m -34.539607,1.236011 15.947532,5.466167 0.0073,23.33364 -15.991149,-6.95282 z" />
    <path style="fill:#dcecf9;stroke:none" d="m 39.896809,21.140553 -16.085938,6.175782 14.730469,5.001953 17.873047,-6.894532 z m 16.689453,5.378907 -17.583985,6.773437 -0.09375,22.460938 17.00586,-8.171875 z" />
    <path style="fill:#ff0305;stroke:none" d="m 23.376301,29.698604 -0.06251,9.332265 13.301396,4.956567 -0.0183,-9.592829 z" />
    <path style="fill:#ff0305;stroke:none" d="m 23.309359,40.291053 -0.04105,8.397366 13.370558,5.581727 -0.01072,-8.722969 z" />
  </g>
</svg>
